<?xml version="1.0" standalone="no"?><!DOCTYPE svg PUBLIC "-//W3C//DTD SVG 1.1//EN" "http://www.w3.org/Graphics/SVG/1.1/DTD/svg11.dtd"><svg t="1662688667778" class="icon" viewBox="0 0 1024 1024" version="1.1" xmlns="http://www.w3.org/2000/svg" p-id="1201" xmlns:xlink="http://www.w3.org/1999/xlink" width="200" height="200"><path d="M725.333333 810.666667H170.666667c-46.933333 0-85.333333-38.4-85.333334-85.333334V170.666667c0-46.933333 38.4-85.333333 85.333334-85.333334h554.666666c46.933333 0 85.333333 38.4 85.333334 85.333334v554.666666c0 46.933333-38.4 85.333333-85.333334 85.333334zM170.666667 170.666667v554.666666h554.666666V170.666667H170.666667z" p-id="1202"></path><path d="M832 938.666667H256c-23.466667 0-42.666667-19.2-42.666667-42.666667s19.2-42.666667 42.666667-42.666667h576c12.8 0 21.333333-8.533333 21.333333-21.333333V256c0-23.466667 19.2-42.666667 42.666667-42.666667s42.666667 19.2 42.666667 42.666667v576c0 59.733333-46.933333 106.666667-106.666667 106.666667zM554.666667 618.666667c-10.666667 0-21.333333-4.266667-27.733334-10.666667L320 420.266667l-164.266667 145.066666c-17.066667 14.933333-44.8 14.933333-59.733333-4.266666-14.933333-17.066667-14.933333-44.8 4.266667-59.733334l164.266666-145.066666c32-29.866667 81.066667-27.733333 113.066667 0l206.933333 187.733333c17.066667 14.933333 19.2 42.666667 2.133334 59.733333-8.533333 10.666667-21.333333 14.933333-32 14.933334z" p-id="1203"></path><path d="M768 618.666667c-23.466667 0-42.666667-19.2-42.666667-42.666667v-42.666667l-125.866666-96-102.4 85.333334c-17.066667 14.933333-44.8 12.8-59.733334-6.4-14.933333-17.066667-12.8-44.8 6.4-59.733334l102.4-85.333333c29.866667-25.6 74.666667-25.6 106.666667-2.133333L725.333333 426.666667v-21.333334c0-23.466667 19.2-42.666667 42.666667-42.666666s42.666667 19.2 42.666667 42.666666v170.666667c0 23.466667-19.2 42.666667-42.666667 42.666667zM128 618.666667c-23.466667 0-42.666667-19.2-42.666667-42.666667v-170.666667c0-23.466667 19.2-42.666667 42.666667-42.666666s42.666667 19.2 42.666667 42.666666v170.666667c0 23.466667-19.2 42.666667-42.666667 42.666667z" p-id="1204"></path></svg>